<svg width="23" height="24" viewBox="0 0 23 24" fill="none" xmlns="http://www.w3.org/2000/svg">
<g clip-path="url(#clip0_356_993)">
<path d="M14.1159 8.38676C14.0928 8.24822 14.027 8.12037 13.9278 8.02105L10.7513 4.84458C10.4881 4.58143 10.0615 4.58143 9.79836 4.84458L8.68659 5.95635L7.89246 5.16222C7.62931 4.89907 7.20268 4.89907 6.93953 5.16222L4.0807 8.02105C3.86207 8.23969 3.82029 8.57907 3.97936 8.8442L4.66163 9.98126L0.904277 13.7387C0.641125 14.0018 0.641125 14.4284 0.904277 14.6916L1.69841 15.4857L0.986844 16.1972C0.35048 16.8336 0 17.6797 0 18.5796V22.767C0 23.1392 0.301695 23.4408 0.673828 23.4408C1.04596 23.4408 1.34766 23.1392 1.34766 22.767V18.5796C1.34766 18.0397 1.55794 17.532 1.93977 17.1502L2.65133 16.4386L4.39839 18.1857C5.71204 19.4994 7.84947 19.4993 9.16307 18.1857L14.563 12.7857C14.7169 12.6318 14.787 12.4132 14.7512 12.1985L14.1159 8.38676ZM8.21015 17.2328C7.42199 18.0209 6.13952 18.021 5.35132 17.2328L4.87483 16.7563L7.37743 14.2537V15.1681C7.37743 15.5402 7.67912 15.8419 8.05126 15.8419C8.42339 15.8419 8.72509 15.5402 8.72509 15.1681V13.7171L10.7255 14.7173L8.21015 17.2328Z" fill="white"/>
<path d="M22.0106 8.98456C21.5533 8.19628 21.1027 7.54244 21.0837 7.51499C20.9579 7.33283 20.7507 7.22412 20.5293 7.22412C20.3079 7.22412 20.1007 7.33283 19.9749 7.51499C19.9559 7.54244 19.5053 8.19628 19.048 8.98456C18.1612 10.5133 18.0586 11.1476 18.0586 11.4917C18.0586 12.854 19.167 13.9624 20.5293 13.9624C21.8916 13.9624 23 12.854 23 11.4917C23 11.1476 22.8974 10.5133 22.0106 8.98456Z" fill="white"/>
<path d="M20.2117 3.80983C20.3917 3.80983 20.5609 3.73971 20.6882 3.61245C20.8154 3.48514 20.8856 3.31592 20.8855 3.13601V1.11479C20.8855 0.743287 20.5833 0.441008 20.2117 0.440963L19.0661 0.440918C17.0561 0.440828 15.1665 1.22355 13.7453 2.64479L12.1013 4.28879L14.4836 6.67113L16.1277 5.02699C16.9125 4.24221 17.956 3.81001 19.0658 3.80997L20.2117 3.80983Z" fill="white"/>
</g>
<defs>
<clipPath id="clip0_356_993">
<rect width="23" height="23" fill="white" transform="translate(0 0.440918)"/>
</clipPath>
</defs>
</svg>
