<svg width="18" height="23" viewBox="0 0 18 23" fill="none" xmlns="http://www.w3.org/2000/svg">
<path d="M12.4656 9.15511C13.9243 7.82527 15.8968 6.02673 16.0766 1.72998H17.3789V0.440918H0.621094V1.72998H1.92343C2.10321 6.02673 4.07574 7.82527 5.53436 9.15511C6.5128 10.0472 7.06641 10.5932 7.06641 11.4409C7.06641 12.2886 6.5128 12.8347 5.53436 13.7267C4.07574 15.0566 2.10321 16.8551 1.92343 21.1519H0.621094V22.4409H17.3789V21.1519H16.0766C15.8968 16.8551 13.9243 15.0566 12.4656 13.7267C11.4872 12.8347 10.9336 12.2886 10.9336 11.4409C10.9336 10.5932 11.4872 10.0472 12.4656 9.15511ZM8.35547 16.2722C8.15639 16.3133 7.95973 16.3731 7.76779 16.4525L3.81995 18.0861C4.46465 16.4469 5.50303 15.4997 6.40284 14.6793C7.40702 13.7638 8.35547 12.8991 8.35547 11.4409V16.2722ZM11.5972 14.6793C12.497 15.4997 13.5353 16.4469 14.1801 18.0861L10.2322 16.4524C10.0403 16.373 9.84361 16.3133 9.64453 16.2722V11.4409C9.64453 12.8991 10.593 13.7638 11.5972 14.6793ZM3.7973 4.73779C3.48565 3.92573 3.27042 2.94522 3.21409 1.72998H14.7859C14.7295 2.94522 14.5144 3.92573 14.2027 4.73779H3.7973Z" fill="white"/>
</svg>
