<svg width="23" height="24" viewBox="0 0 23 24" fill="none" xmlns="http://www.w3.org/2000/svg">
<path d="M9.09217 15.4055C9.03216 15.4429 8.96969 15.4764 8.90529 15.5057C8.88686 15.5143 8.87037 15.5262 8.85159 15.5345C8.79509 15.5557 8.73736 15.5738 8.67857 15.5884C8.75508 16.1636 8.68875 16.7488 8.4852 17.2924C9.05058 17.2466 9.59421 17.0545 10.0627 16.7349C9.89059 16.199 9.55034 15.7328 9.09217 15.4055Z" fill="white"/>
<path d="M9.59973 13.1425C9.63728 13.2027 9.67062 13.265 9.69993 13.3294C9.7087 13.348 9.72046 13.3643 9.72871 13.3833C9.75011 13.4398 9.76801 13.4975 9.78258 13.5561C10.3578 13.4796 10.9432 13.5461 11.4866 13.7496C11.4408 13.1843 11.2489 12.6406 10.9293 12.1721C10.3932 12.3443 9.92699 12.6845 9.59973 13.1425Z" fill="white"/>
<path d="M9.81628 14.3795C9.81136 14.4013 9.80224 14.4206 9.79645 14.4432C9.77908 14.5159 9.75697 14.5875 9.72994 14.6571C9.72169 14.6761 9.70994 14.6926 9.70116 14.711C9.68695 14.7419 9.66923 14.7705 9.65326 14.8005C10.1139 15.1536 10.4806 15.6145 10.721 16.1427C11.0892 15.7103 11.3382 15.1897 11.444 14.6317C10.9427 14.3745 10.3718 14.286 9.81628 14.3795Z" fill="white"/>
<path d="M7.33695 12.635C7.39381 12.5999 7.45294 12.5683 7.51401 12.5406C7.53577 12.5299 7.55507 12.5155 7.57806 12.5062C7.63438 12.4848 7.69194 12.4669 7.75055 12.4523C7.67404 11.8771 7.74037 11.2917 7.94392 10.7483C7.37872 10.7939 6.83492 10.9861 6.36639 11.3056C6.53854 11.8417 6.87878 12.3077 7.33695 12.635Z" fill="white"/>
<path d="M8.63754 12.4394C8.71037 12.4567 8.78179 12.479 8.85162 12.506C8.8704 12.5141 8.8869 12.526 8.90532 12.5346C8.9362 12.549 8.96498 12.5664 8.99499 12.5827C9.34787 12.1221 9.80885 11.7554 10.3372 11.515C9.90483 11.1468 9.38402 10.8978 8.82618 10.792C8.56911 11.2928 8.48067 11.8631 8.57402 12.4181C8.59578 12.4246 8.61578 12.4337 8.63754 12.4394Z" fill="white"/>
<path d="M7.86385 13.2809C7.69328 13.3623 7.55589 13.4997 7.47447 13.6703C7.46955 13.6813 7.46218 13.6912 7.45762 13.7024C7.44621 13.7322 7.43674 13.7629 7.42884 13.794C7.4227 13.8152 7.4141 13.8351 7.40954 13.858C7.40498 13.881 7.40673 13.8933 7.40428 13.9105C7.39006 13.9833 7.39006 14.0583 7.40428 14.1311C7.40673 14.1483 7.40428 14.1664 7.40954 14.1832C7.4148 14.2001 7.42305 14.2243 7.42919 14.2478C7.43674 14.2787 7.44621 14.3092 7.45762 14.339C7.46218 14.3501 7.46955 14.3603 7.47482 14.3713C7.51921 14.465 7.58098 14.5492 7.65679 14.6198C7.9751 14.9021 8.45397 14.9021 8.77229 14.6198C8.84809 14.5492 8.90986 14.465 8.95426 14.3713C8.95952 14.3603 8.96707 14.3501 8.97145 14.339C8.98286 14.3092 8.99233 14.2787 8.99988 14.2478C9.00602 14.226 9.01497 14.2067 9.01953 14.1832C9.0241 14.1599 9.02234 14.1483 9.02497 14.1311C9.03919 14.0583 9.03919 13.9833 9.02497 13.9105C9.02234 13.8933 9.02497 13.8752 9.01953 13.858C9.01427 13.8407 9.00637 13.817 9.00023 13.794C8.99233 13.7629 8.98286 13.7322 8.97145 13.7024C8.96707 13.6912 8.95952 13.6813 8.95461 13.6703C8.87336 13.4994 8.73579 13.3618 8.56487 13.2806C8.55382 13.2756 8.54399 13.2683 8.53294 13.2634C8.50276 13.2523 8.47222 13.2428 8.44134 13.2349C8.41993 13.2288 8.40028 13.2202 8.37712 13.2156C8.35413 13.2111 8.34184 13.2128 8.32465 13.2104C8.25183 13.1962 8.1769 13.1962 8.10407 13.2104C8.08688 13.2128 8.0688 13.2104 8.05196 13.2156C8.03511 13.2209 8.00879 13.2291 7.98738 13.2353C7.9565 13.243 7.92614 13.2523 7.89631 13.2634C7.88596 13.2677 7.8749 13.2751 7.86385 13.2809Z" fill="white"/>
<path d="M7.79153 15.6011C7.7187 15.5838 7.64729 15.5615 7.57745 15.5346C7.55867 15.5264 7.54218 15.5144 7.52375 15.5058C7.49287 15.4915 7.46409 15.4743 7.43426 15.4578C7.0812 15.9186 6.62022 16.2853 6.09204 16.5257C6.52441 16.8937 7.04505 17.1429 7.60289 17.2485C7.85996 16.7479 7.9484 16.1776 7.85522 15.6225C7.83347 15.6159 7.81329 15.6069 7.79153 15.6011Z" fill="white"/>
<path d="M9.49371 4.37848L9.64076 4.84752L12.5819 4.60852L12.2348 3.5127L9.49371 4.37848Z" fill="white"/>
<path d="M12.5227 1.69897L8.21451 3.0596L8.4621 3.84326L8.8527 3.71973L8.85516 3.7185L12.379 2.60547L12.3815 2.60494L12.7705 2.48229L12.5227 1.69897Z" fill="white"/>
<path d="M6.82924 14.898C6.79186 14.838 6.75835 14.7755 6.72904 14.7111C6.72044 14.6927 6.70851 14.6762 6.70026 14.6572C6.67938 14.6011 6.66148 14.5437 6.64639 14.4856C6.48899 14.504 6.33054 14.5139 6.17208 14.5147C5.75199 14.5186 5.33488 14.4431 4.94287 14.2922C4.98832 14.8571 5.18029 15.4004 5.49966 15.8685C6.03574 15.6964 6.50198 15.356 6.82924 14.898Z" fill="white"/>
<path d="M19.7145 4.16336V9.91327C19.7145 10.3669 20.0821 10.7347 20.5359 10.7347H21.3573V3.3418H20.5359C20.0821 3.3418 19.7145 3.70959 19.7145 4.16336Z" fill="white"/>
<path d="M17.6609 6.2168H18.893V7.03838H17.6609V6.2168Z" fill="white"/>
<path d="M17.6609 7.85986H18.893V8.68127H17.6609V7.85986Z" fill="white"/>
<path d="M6.61283 13.6609C6.61774 13.6391 6.62687 13.6198 6.63266 13.5972C6.65003 13.5245 6.67214 13.4531 6.69917 13.3833C6.70741 13.3643 6.71935 13.348 6.72794 13.3294C6.74233 13.2987 6.75988 13.2699 6.77602 13.2399C6.31522 12.887 5.94848 12.4261 5.70808 11.8977C5.3401 12.3301 5.09093 12.8509 4.98529 13.4087C5.48645 13.6658 6.05727 13.7542 6.61283 13.6609Z" fill="white"/>
<path d="M17.6609 9.91323C17.6609 10.1399 17.8448 10.3238 18.0716 10.3238H18.4824C18.7092 10.3238 18.893 10.1399 18.893 9.91323V9.50244H17.6609V9.91323Z" fill="white"/>
<path d="M22.1786 3.3418V10.7347C22.6322 10.7347 23 10.3669 23 9.91327V4.16336C23 3.70959 22.6322 3.3418 22.1786 3.3418Z" fill="white"/>
<path d="M18.4824 4.57397H18.0716C17.8448 4.57397 17.6609 4.75787 17.6609 4.98476V5.39538H18.893V4.98476C18.893 4.75787 18.7092 4.57397 18.4824 4.57397Z" fill="white"/>
<path d="M7.79737 5.81842H7.77105C7.6219 5.82579 7.45731 5.83685 7.29377 5.85948C7.27499 5.86229 7.25604 5.8637 7.23709 5.86352C2.85903 6.38836 -0.3237 10.2761 0.0263691 14.6716C0.376438 19.0672 4.13455 22.402 8.5405 22.2271C12.9465 22.0521 16.4282 18.4297 16.4287 14.0202C16.4312 12.8893 16.1976 11.7701 15.7428 10.7347H14.3752C14.1484 10.7347 13.9646 10.5508 13.9646 10.3239C13.9646 10.097 14.1484 9.91327 14.3752 9.91327H16.8395V5.0874L7.82931 5.8172L7.79737 5.81842ZM13.9646 14.0202C13.9646 17.1958 11.3902 19.7701 8.21465 19.7701C5.03894 19.7701 2.46474 17.1958 2.46474 14.0202C2.46474 10.8447 5.03894 8.27031 8.21465 8.27031C11.3888 8.27382 13.961 10.8461 13.9646 14.0202Z" fill="white"/>
<path d="M8.21458 18.9488C10.9365 18.9488 13.1429 16.7422 13.1429 14.0203C13.1429 11.2984 10.9365 9.0918 8.21458 9.0918C5.49265 9.0918 3.28607 11.2984 3.28607 14.0203C3.28905 16.741 5.49387 18.9458 8.21458 18.9488ZM5.68707 10.7902C6.54215 10.1169 7.63061 9.81246 8.711 9.94407C9.79138 10.0758 10.7747 10.633 11.4431 11.4921L11.4456 11.4958C12.1185 12.3512 12.4226 13.4398 12.2905 14.5202C12.1582 15.6006 11.6007 16.5838 10.7412 17.2518C8.95683 18.6475 6.37896 18.3324 4.98325 16.548C3.58753 14.7638 3.90268 12.1857 5.68707 10.7902Z" fill="white"/>
</svg>
