<svg width="26" height="24" viewBox="0 0 26 24" fill="none" xmlns="http://www.w3.org/2000/svg">
<path d="M18.2497 9.95776V12.8959L21.0454 11.984C20.3819 10.9997 19.3916 10.2821 18.2497 9.95776Z" fill="white"/>
<path d="M17.3378 13.0191V9.78612C17.1872 9.77248 17.0359 9.76294 16.8818 9.76294C16.7277 9.76294 16.5763 9.77248 16.4259 9.78612V13.0191C16.7236 12.9328 17.0399 12.9328 17.3378 13.0191Z" fill="white"/>
<path d="M17.7937 14.778C17.7937 15.2816 17.3854 15.6899 16.8818 15.6899C16.3783 15.6899 15.97 15.2816 15.97 14.778C15.97 14.2745 16.3783 13.8662 16.8818 13.8662C17.3854 13.8662 17.7937 14.2745 17.7937 14.778Z" fill="white"/>
<path d="M11.0115 4.52626C11.7745 4.8202 12.3669 5.43848 12.6279 6.21318C13.7016 5.67613 14.8675 5.34771 16.0637 5.24525C15.0562 4.60379 13.9307 4.16978 12.7532 3.96856C11.2985 3.7352 9.91893 3.16328 8.72601 2.29858C9.22215 3.27217 10.0255 4.05524 11.0115 4.52626Z" fill="white"/>
<path d="M15.3475 13.8004L12.274 12.8005C12.1548 13.0803 12.0613 13.3701 11.9947 13.6668L15.0693 14.6657C15.0869 14.3583 15.1825 14.0605 15.3475 13.8004Z" fill="white"/>
<path d="M18.694 14.6657L21.7688 13.6668C21.702 13.3701 21.6085 13.0803 21.4893 12.8005L18.4158 13.8004C18.5808 14.0605 18.6765 14.3583 18.694 14.6657Z" fill="white"/>
<path d="M9.54127 8.64236C9.09753 8.03693 8.76171 7.35944 8.54821 6.63987C8.47341 6.43144 8.40095 6.22943 8.32673 6.04711C8.20537 5.70563 8.0246 5.38831 7.7928 5.10976C7.37185 4.66251 6.63377 4.57816 5.92063 4.49654L5.62668 4.46187C3.74983 4.16831 2.02746 3.24947 0.738114 1.85435C0.398198 1.43982 0.14964 0.958292 0.00860842 0.440918C-0.109437 2.43561 0.991542 4.68627 3.00494 5.22001C4.76861 5.68732 8.43796 6.65857 7.80195 9.0822C7.46632 10.3612 7.26393 11.134 6.64429 11.1459C6.08036 11.1751 5.75602 10.4674 5.36137 9.18525C4.9336 7.79481 3.33375 7.60644 2.16986 7.66702C2.84131 8.05563 3.43855 8.56074 3.93333 9.15837C4.39577 9.86041 4.61979 10.693 4.57167 11.5325C4.56934 11.9784 4.62427 12.4227 4.7353 12.8546C4.99886 13.6977 5.77395 14.2069 6.595 14.7462C6.8422 14.9085 7.09115 15.0764 7.33269 15.2533C7.32354 15.0973 7.30717 14.9391 7.30717 14.7782C7.30601 12.5336 8.09707 10.3606 9.54127 8.64236Z" fill="white"/>
<path d="M15.5137 9.95776C14.3716 10.2827 13.3813 11.0013 12.718 11.9862L15.5137 12.8982V9.95776Z" fill="white"/>
<path d="M16.8817 6.11548C12.0976 6.11548 8.21901 9.99403 8.21901 14.7782C8.21901 19.5625 12.0976 23.4409 16.8817 23.4409C21.6661 23.4409 25.5444 19.5625 25.5444 14.7782C25.5392 9.99618 21.6637 6.12074 16.8817 6.11548ZM16.4259 7.02731C16.6776 7.02731 16.8817 7.23146 16.8817 7.48333C16.8817 7.7352 16.6776 7.93934 16.4259 7.93934C16.174 7.93934 15.9699 7.7352 15.9699 7.48333C15.9699 7.23146 16.174 7.02731 16.4259 7.02731ZM10.4987 12.0427C10.4194 12.0427 10.3417 12.022 10.2731 11.9825C10.0546 11.8574 9.97859 11.5791 10.1035 11.3605C12.0083 8.0268 14.4119 7.51196 14.5132 7.49248C14.7569 7.44885 14.9908 7.60741 15.0403 7.84993C15.0898 8.09245 14.9369 8.33029 14.6955 8.38561C14.6618 8.39341 12.5754 8.87474 10.8963 11.8128C10.8148 11.9554 10.6629 12.0433 10.4987 12.0427ZM19.5868 20.0456L19.5841 20.0487C19.5405 20.0795 19.492 20.1025 19.4403 20.1161C17.7976 20.9146 15.8766 20.9008 14.2456 20.0789C14.2228 20.0706 14.2006 20.0606 14.1795 20.0487L14.1766 20.0456C11.8876 18.894 10.6138 16.387 11.0336 13.859C11.034 13.8512 11.035 13.8432 11.0363 13.8354V13.833C11.4487 11.3052 13.4372 9.32764 15.9672 8.92909H15.9699C16.5734 8.82566 17.1901 8.82566 17.7935 8.92909H17.7969C20.3263 9.32823 22.3141 11.3056 22.7263 13.833V13.8354C22.7277 13.8432 22.7287 13.8512 22.7291 13.859C23.1486 16.387 21.8751 18.894 19.5858 20.0456H19.5868Z" fill="white"/>
<path d="M17.5511 16.4709L19.4455 19.0805C19.7069 18.9243 19.9537 18.7449 20.1828 18.5445L18.2829 15.9309C18.0885 16.1699 17.8367 16.3556 17.5511 16.4709Z" fill="white"/>
<path d="M11.876 14.5872C11.8736 14.6511 11.8664 14.714 11.8664 14.7783C11.8664 15.9012 12.2455 16.9915 12.9425 17.8722L14.6699 15.4949L11.876 14.5872Z" fill="white"/>
<path d="M19.0934 15.4949L20.821 17.8722C21.5178 16.9915 21.8968 15.9012 21.8968 14.7783C21.8968 14.714 21.8896 14.6511 21.8873 14.5872L19.0934 15.4949Z" fill="white"/>
<path d="M15.1546 19.4808C16.2682 19.8978 17.4951 19.8978 18.6087 19.4808L16.8817 17.1035L15.1546 19.4808Z" fill="white"/>
<path d="M15.4806 15.9309L13.5806 18.5445C13.8096 18.7449 14.0564 18.9243 14.3178 19.0805L16.2122 16.4709C15.9267 16.3556 15.675 16.1699 15.4806 15.9309Z" fill="white"/>
</svg>
