<svg width="143" height="143" viewBox="0 0 143 143" fill="none" xmlns="http://www.w3.org/2000/svg">
<g filter="url(#filter0_d_604_174)">
<rect x="30.3311" y="26.4409" width="82" height="82" rx="16" fill="white"/>
<rect x="31.8311" y="27.9409" width="79" height="79" rx="14.5" stroke="#FE7140" stroke-width="3"/>
</g>
<path d="M91.8256 54.7997C91.8256 61.0313 89.1089 65.5586 88.9946 65.7474C88.7645 66.1235 88.3662 66.3298 87.9552 66.3298C87.7394 66.3298 87.522 66.2727 87.3253 66.1537C86.7508 65.8045 86.5667 65.0571 86.9143 64.4827C86.9397 64.4414 89.3913 60.3204 89.3913 54.7997C89.3913 51.6514 87.3443 49.3664 84.5229 49.3664C81.8379 49.3664 79.6544 51.5499 79.6544 54.2364C79.6544 55.3805 80.2082 58.2876 80.4209 59.3112C80.5589 59.9697 80.1352 60.614 79.4767 60.752C78.8182 60.8869 78.1739 60.4664 78.0374 59.8094C77.9533 59.4079 77.217 55.8391 77.217 54.2364C77.217 50.209 80.4939 46.9321 84.5229 46.9321C88.6852 46.9321 91.8256 50.3137 91.8256 54.7997ZM84.7292 56.7151C85.2132 60.7599 85.9146 68.6418 85.1084 69.4448L67.4214 87.1334C66.3344 88.222 64.5682 88.222 63.4797 87.1318L51.6529 75.3066C50.5643 74.2196 50.5643 72.4534 51.6529 71.3649L69.3415 53.6778C69.6224 53.397 72.6818 53.3843 76.1221 53.5636C76.1031 53.7905 76.0539 54.0047 76.0539 54.2364C76.0539 55.1187 76.249 56.4866 76.4538 57.6894C76.0935 58.2242 75.8825 58.8668 75.8825 59.5603C75.8825 61.4074 77.3805 62.9054 79.2276 62.9054C81.0747 62.9054 82.5726 61.4074 82.5726 59.5603C82.5726 58.4225 82.003 57.4196 81.135 56.8166C80.9572 55.7582 80.8144 54.7363 80.8144 54.2364C80.8144 54.1285 80.8366 54.0285 80.8462 53.9222C81.2698 53.9666 81.6872 54.0127 82.0823 54.0618C84.4197 54.3491 84.4435 54.3443 84.7292 56.7151ZM75.3017 69.9526C75.0272 69.1893 74.5702 68.2737 73.5784 67.22L74.9209 65.876L73.426 64.3827L71.9772 65.8331C70.0381 64.5049 68.0387 64.6128 66.6819 65.9696C65.203 67.4485 65.5521 69.3258 66.6375 71.5077C67.3833 73.0184 67.5198 73.888 66.9406 74.4672C66.3455 75.0622 65.3855 74.8036 64.5143 73.934C63.5241 72.9438 62.9433 71.7203 62.6545 70.7285L60.4107 72.0583C60.6709 72.9565 61.3723 74.2371 62.3625 75.2907L60.8994 76.7554L62.3927 78.2502L63.9652 76.6792C66.0392 78.1423 68.1307 77.9455 69.4875 76.5888C70.876 75.1971 70.9982 73.642 69.808 71.1713C68.9829 69.4003 68.7845 68.5308 69.2732 68.0436C69.7017 67.6151 70.4634 67.493 71.4552 68.4847C72.5549 69.5844 72.9198 70.6524 73.1182 71.2173L75.3017 69.9526Z" fill="url(#paint0_linear_604_174)"/>
<defs>
<filter id="filter0_d_604_174" x="0.331055" y="0.440918" width="142" height="142" filterUnits="userSpaceOnUse" color-interpolation-filters="sRGB">
<feFlood flood-opacity="0" result="BackgroundImageFix"/>
<feColorMatrix in="SourceAlpha" type="matrix" values="0 0 0 0 0 0 0 0 0 0 0 0 0 0 0 0 0 0 127 0" result="hardAlpha"/>
<feOffset dy="4"/>
<feGaussianBlur stdDeviation="15"/>
<feColorMatrix type="matrix" values="0 0 0 0 0.996078 0 0 0 0 0.427451 0 0 0 0 0.227451 0 0 0 0.26 0"/>
<feBlend mode="normal" in2="BackgroundImageFix" result="effect1_dropShadow_604_174"/>
<feBlend mode="normal" in="SourceGraphic" in2="effect1_dropShadow_604_174" result="shape"/>
</filter>
<linearGradient id="paint0_linear_604_174" x1="50.7665" y1="57.3726" x2="101.793" y2="59.2875" gradientUnits="userSpaceOnUse">
<stop stop-color="#FD4B0D"/>
<stop offset="1" stop-color="#FF855A"/>
</linearGradient>
</defs>
</svg>
