<svg width="215" height="73" viewBox="0 0 215 73" fill="none" xmlns="http://www.w3.org/2000/svg">
<path d="M62.8866 41.6189C62.8866 43.6925 153.638 42.8411 153.638 40.1817C152.894 37.947 62.8866 38.9047 62.8866 41.6189Z" fill="#20272B"/>
<path d="M112.289 1.55494C93.4354 5.63977 76.6033 13.5687 70.5439 17.0226C99.6906 6.26727 114.623 3.19658 130.74 4.78551C146.856 6.37444 163.653 9.70364 174.7 13.3355C183.538 16.241 194.348 18.8352 198.649 19.7691C192.8 20.5238 189.687 19.5804 180.631 18.2597C171.575 16.9391 161.575 18.3541 151.199 20.8068C142.897 22.7689 132.661 23.6686 128.58 23.8732C132.871 24.2239 143.593 24.4736 152.156 22.6668C162.859 20.4083 176.311 19.9173 183.774 22.0776C189.744 23.8058 194.641 24.0415 196.343 23.9433C208.441 21.9794 213.822 15.0731 215 11.8654C205.082 19.5246 194.87 14.5167 187.8 12.5528C180.73 10.5889 135.855 -3.5511 112.289 1.55494Z" fill="#20272B"/>
<path d="M60.4809 18.6626C29.2449 20.7885 7.14522 29.4506 -0.00012207 33.5159C21.2369 26.3767 51.1927 20.3791 86.7246 22.3243C122.257 24.2695 153.941 17.5543 165.342 13.9536C103.064 22.3956 99.5258 16.0051 60.4809 18.6626Z" fill="#20272B"/>
<path d="M19.6397 29.5272C12.2282 31.6876 8.67503 34.5532 7.82486 35.7159C9.08761 35.8159 13.451 35.6034 20.8024 33.953C29.9918 31.8901 31.7921 26.4891 30.6294 26.5266C29.4667 26.5641 28.9041 26.8267 19.6397 29.5272Z" fill="#20272B"/>
<path d="M43.8075 55.9161H50.5925C52.2945 55.9161 53.8049 56.2534 55.1235 56.9281C56.4422 57.6028 57.4619 58.5534 58.1825 59.7801C58.9185 60.9914 59.2865 62.3868 59.2865 63.9661C59.2865 65.5454 58.9185 66.9484 58.1825 68.1751C57.4619 69.3864 56.4422 70.3294 55.1235 71.0041C53.8049 71.6788 52.2945 72.0161 50.5925 72.0161H43.8075V55.9161ZM50.4545 70.0151C51.7579 70.0151 52.9002 69.7621 53.8815 69.2561C54.8782 68.7501 55.6449 68.0448 56.1815 67.1401C56.7182 66.2201 56.9865 65.1621 56.9865 63.9661C56.9865 62.7701 56.7182 61.7198 56.1815 60.8151C55.6449 59.8951 54.8782 59.1821 53.8815 58.6761C52.9002 58.1701 51.7579 57.9171 50.4545 57.9171H46.1075V70.0151H50.4545Z" fill="#20272B"/>
<path d="M73.5045 65.9901C73.5045 66.1588 73.4891 66.3811 73.4585 66.6571H63.5685C63.7065 67.7304 64.1741 68.5968 64.9715 69.2561C65.7841 69.9001 66.7885 70.2221 67.9845 70.2221C69.4411 70.2221 70.6141 69.7314 71.5035 68.7501L72.7225 70.1761C72.1705 70.8201 71.4805 71.3108 70.6525 71.6481C69.8398 71.9855 68.9275 72.1541 67.9155 72.1541C66.6275 72.1541 65.4851 71.8934 64.4885 71.3721C63.4918 70.8354 62.7175 70.0918 62.1655 69.1411C61.6288 68.1904 61.3605 67.1171 61.3605 65.9211C61.3605 64.7404 61.6211 63.6748 62.1425 62.7241C62.6791 61.7734 63.4075 61.0374 64.3275 60.5161C65.2628 59.9794 66.3131 59.7111 67.4785 59.7111C68.6438 59.7111 69.6788 59.9794 70.5835 60.5161C71.5035 61.0374 72.2165 61.7734 72.7225 62.7241C73.2438 63.6748 73.5045 64.7634 73.5045 65.9901ZM67.4785 61.5741C66.4205 61.5741 65.5311 61.8961 64.8105 62.5401C64.1051 63.1841 63.6911 64.0274 63.5685 65.0701H71.3885C71.2658 64.0428 70.8441 63.2071 70.1235 62.5631C69.4181 61.9038 68.5365 61.5741 67.4785 61.5741Z" fill="#20272B"/>
<path d="M80.6726 59.7111C82.3592 59.7111 83.6472 60.1251 84.5366 60.9531C85.4412 61.7811 85.8936 63.0154 85.8936 64.6561V72.0161H83.8006V70.4061C83.4326 70.9734 82.9036 71.4104 82.2136 71.7171C81.5389 72.0084 80.7339 72.1541 79.7986 72.1541C78.4339 72.1541 77.3376 71.8244 76.5096 71.1651C75.6969 70.5058 75.2906 69.6395 75.2906 68.5661C75.2906 67.4928 75.6816 66.6341 76.4636 65.9901C77.2456 65.3308 78.4876 65.0011 80.1896 65.0011H83.6856V64.5641C83.6856 63.6134 83.4096 62.8851 82.8576 62.3791C82.3056 61.8731 81.4929 61.6201 80.4196 61.6201C79.6989 61.6201 78.9936 61.7428 78.3036 61.9881C77.6136 62.2181 77.0309 62.5324 76.5556 62.9311L75.6356 61.2751C76.2642 60.7691 77.0156 60.3858 77.8896 60.1251C78.7636 59.8491 79.6912 59.7111 80.6726 59.7111ZM80.1666 70.4521C81.0099 70.4521 81.7382 70.2681 82.3516 69.9001C82.9649 69.5168 83.4096 68.9801 83.6856 68.2901V66.5881H80.2816C78.4109 66.5881 77.4756 67.2168 77.4756 68.4741C77.4756 69.0874 77.7132 69.5704 78.1886 69.9231C78.6639 70.2758 79.3232 70.4521 80.1666 70.4521Z" fill="#20272B"/>
<path d="M89.9797 54.9501H92.1877V72.0161H89.9797V54.9501Z" fill="#20272B"/>
<path d="M107.42 65.9901C107.42 66.1588 107.405 66.3811 107.374 66.6571H97.4845C97.6225 67.7304 98.0902 68.5968 98.8875 69.2561C99.7002 69.9001 100.704 70.2221 101.9 70.2221C103.357 70.2221 104.53 69.7314 105.419 68.7501L106.638 70.1761C106.086 70.8201 105.396 71.3108 104.568 71.6481C103.756 71.9855 102.843 72.1541 101.831 72.1541C100.543 72.1541 99.4012 71.8934 98.4045 71.3721C97.4078 70.8354 96.6335 70.0918 96.0815 69.1411C95.5448 68.1904 95.2765 67.1171 95.2765 65.9211C95.2765 64.7404 95.5372 63.6748 96.0585 62.7241C96.5952 61.7734 97.3235 61.0374 98.2435 60.5161C99.1788 59.9794 100.229 59.7111 101.394 59.7111C102.56 59.7111 103.595 59.9794 104.499 60.5161C105.419 61.0374 106.132 61.7734 106.638 62.7241C107.16 63.6748 107.42 64.7634 107.42 65.9901ZM101.394 61.5741C100.336 61.5741 99.4472 61.8961 98.7265 62.5401C98.0212 63.1841 97.6072 64.0274 97.4845 65.0701H105.304C105.182 64.0428 104.76 63.2071 104.039 62.5631C103.334 61.9038 102.452 61.5741 101.394 61.5741Z" fill="#20272B"/>
<path d="M112.602 61.8731C112.986 61.1678 113.553 60.6311 114.304 60.2631C115.056 59.8951 115.968 59.7111 117.041 59.7111V61.8501C116.919 61.8348 116.75 61.8271 116.535 61.8271C115.339 61.8271 114.396 62.1874 113.706 62.9081C113.032 63.6134 112.694 64.6255 112.694 65.9441V72.0161H110.486V59.8261H112.602V61.8731Z" fill="#20272B"/>
<path d="M133.618 72.2001C132.008 72.2001 130.551 71.8474 129.248 71.1421C127.96 70.4214 126.948 69.4401 126.212 68.1981C125.476 66.9408 125.108 65.5301 125.108 63.9661C125.108 62.4021 125.476 60.9991 126.212 59.7571C126.948 58.4998 127.968 57.5184 129.271 56.8131C130.574 56.0924 132.031 55.7321 133.641 55.7321C134.898 55.7321 136.048 55.9468 137.091 56.3761C138.134 56.7901 139.023 57.4111 139.759 58.2391L138.264 59.6881C137.053 58.4154 135.542 57.7791 133.733 57.7791C132.537 57.7791 131.456 58.0474 130.49 58.5841C129.524 59.1208 128.765 59.8644 128.213 60.8151C127.676 61.7504 127.408 62.8008 127.408 63.9661C127.408 65.1314 127.676 66.1894 128.213 67.1401C128.765 68.0754 129.524 68.8114 130.49 69.3481C131.456 69.8848 132.537 70.1531 133.733 70.1531C135.527 70.1531 137.037 69.5091 138.264 68.2211L139.759 69.6701C139.023 70.4981 138.126 71.1268 137.068 71.5561C136.025 71.9855 134.875 72.2001 133.618 72.2001Z" fill="#20272B"/>
<path d="M147 59.7111C148.686 59.7111 149.974 60.1251 150.864 60.9531C151.768 61.7811 152.221 63.0154 152.221 64.6561V72.0161H150.128V70.4061C149.76 70.9734 149.231 71.4104 148.541 71.7171C147.866 72.0084 147.061 72.1541 146.126 72.1541C144.761 72.1541 143.665 71.8244 142.837 71.1651C142.024 70.5058 141.618 69.6395 141.618 68.5661C141.618 67.4928 142.009 66.6341 142.791 65.9901C143.573 65.3308 144.815 65.0011 146.517 65.0011H150.013V64.5641C150.013 63.6134 149.737 62.8851 149.185 62.3791C148.633 61.8731 147.82 61.6201 146.747 61.6201C146.026 61.6201 145.321 61.7428 144.631 61.9881C143.941 62.2181 143.358 62.5324 142.883 62.9311L141.963 61.2751C142.591 60.7691 143.343 60.3858 144.217 60.1251C145.091 59.8491 146.018 59.7111 147 59.7111ZM146.494 70.4521C147.337 70.4521 148.065 70.2681 148.679 69.9001C149.292 69.5168 149.737 68.9801 150.013 68.2901V66.5881H146.609C144.738 66.5881 143.803 67.2168 143.803 68.4741C143.803 69.0874 144.04 69.5704 144.516 69.9231C144.991 70.2758 145.65 70.4521 146.494 70.4521Z" fill="#20272B"/>
<path d="M158.423 61.8731C158.806 61.1678 159.373 60.6311 160.125 60.2631C160.876 59.8951 161.788 59.7111 162.862 59.7111V61.8501C162.739 61.8348 162.57 61.8271 162.356 61.8271C161.16 61.8271 160.217 62.1874 159.527 62.9081C158.852 63.6134 158.515 64.6255 158.515 65.9441V72.0161H156.307V59.8261H158.423V61.8731Z" fill="#20272B"/>
<path d="M169.169 72.1541C168.172 72.1541 167.214 72.0238 166.294 71.7631C165.374 71.4871 164.653 71.1421 164.132 70.7281L165.052 68.9801C165.589 69.3634 166.24 69.6701 167.007 69.9001C167.774 70.1301 168.548 70.2451 169.33 70.2451C171.262 70.2451 172.228 69.6931 172.228 68.5891C172.228 68.2211 172.098 67.9298 171.837 67.7151C171.576 67.5004 171.247 67.3471 170.848 67.2551C170.465 67.1478 169.913 67.0328 169.192 66.9101C168.211 66.7568 167.406 66.5804 166.777 66.3811C166.164 66.1818 165.635 65.8444 165.19 65.3691C164.745 64.8938 164.523 64.2268 164.523 63.3681C164.523 62.2641 164.983 61.3824 165.903 60.7231C166.823 60.0484 168.057 59.7111 169.606 59.7111C170.419 59.7111 171.231 59.8108 172.044 60.0101C172.857 60.2094 173.524 60.4778 174.045 60.8151L173.102 62.5631C172.105 61.9191 170.932 61.5971 169.583 61.5971C168.648 61.5971 167.935 61.7504 167.444 62.0571C166.953 62.3638 166.708 62.7701 166.708 63.2761C166.708 63.6748 166.846 63.9891 167.122 64.2191C167.398 64.4491 167.735 64.6178 168.134 64.7251C168.548 64.8324 169.123 64.9551 169.859 65.0931C170.84 65.2618 171.63 65.4458 172.228 65.6451C172.841 65.8291 173.363 66.1511 173.792 66.6111C174.221 67.0711 174.436 67.7151 174.436 68.5431C174.436 69.6471 173.961 70.5288 173.01 71.1881C172.075 71.8321 170.794 72.1541 169.169 72.1541Z" fill="#20272B"/>
</svg>
